<svg width="22" height="23" viewBox="0 0 22 23" fill="none" xmlns="http://www.w3.org/2000/svg">
<path d="M13.7595 11.6551V21.0777C13.8133 21.4365 13.6788 21.8191 13.3694 22.0702C13.2449 22.1811 13.0971 22.269 12.9344 22.329C12.7716 22.389 12.5972 22.4199 12.421 22.4199C12.2448 22.4199 12.0703 22.389 11.9076 22.329C11.7449 22.269 11.597 22.1811 11.4726 22.0702L8.76867 19.6667C8.62195 19.5392 8.5104 19.3833 8.44272 19.2111C8.37504 19.039 8.35308 18.8552 8.37856 18.6742V11.6551H8.3382L0.589653 2.83033C0.371198 2.58105 0.272627 2.26504 0.315478 1.95136C0.35833 1.63767 0.539119 1.35182 0.818343 1.15626C1.07394 0.98885 1.35644 0.893188 1.65239 0.893188H20.4857C20.7816 0.893188 21.0641 0.98885 21.3197 1.15626C21.5989 1.35182 21.7797 1.63767 21.8226 1.95136C21.8654 2.26504 21.7668 2.58105 21.5484 2.83033L13.7998 11.6551H13.7595Z" fill="white"/>
</svg>
