<svg width="28" height="34" viewBox="0 0 28 34" fill="none" xmlns="http://www.w3.org/2000/svg">
<path d="M8.63047 16.6924C8.63047 16.4157 8.72139 16.1504 8.88322 15.9547C9.04505 15.7591 9.26455 15.6491 9.49342 15.6491H17.2599V8.8678C17.2599 6.78123 15.4375 5.21631 13.8081 5.21631H5.61016C4.80938 5.21734 4.04165 5.60239 3.47542 6.28695C2.90919 6.97151 2.5907 7.89968 2.58984 8.8678V24.5171C2.5907 25.4852 2.90919 26.4133 3.47542 27.0979C4.04165 27.7825 4.80938 28.1675 5.61016 28.1685H14.2396C15.0404 28.1675 15.8081 27.7825 16.3744 27.0979C16.9406 26.4133 17.2591 25.4852 17.2599 24.5171V17.7357H9.49342C9.26455 17.7357 9.04505 17.6258 8.88322 17.4301C8.72139 17.2345 8.63047 16.9691 8.63047 16.6924ZM24.7735 15.955L20.4588 10.7385C20.2956 10.5511 20.0784 10.4482 19.8533 10.4517C19.6283 10.4552 19.4133 10.5648 19.2542 10.7572C19.0951 10.9496 19.0044 11.2095 19.0015 11.4815C18.9986 11.7536 19.0838 12.0162 19.2388 12.2135L22.08 15.6491H17.2599V17.7357H22.08L19.2388 21.1714C19.1553 21.2673 19.0885 21.3824 19.0424 21.5101C18.9963 21.6377 18.9718 21.7751 18.9703 21.9144C18.9688 22.0536 18.9904 22.1918 19.0338 22.3208C19.0772 22.4498 19.1415 22.567 19.223 22.6654C19.3044 22.7639 19.4013 22.8417 19.508 22.8941C19.6147 22.9466 19.729 22.9727 19.8442 22.9709C19.9594 22.9691 20.0731 22.9395 20.1786 22.8838C20.2842 22.828 20.3794 22.7473 20.4588 22.6463L24.7735 17.4299C24.9352 17.2343 25.0261 16.969 25.0261 16.6924C25.0261 16.4159 24.9352 16.1506 24.7735 15.955Z" fill="white"/>
</svg>
