<svg width="27" height="27" viewBox="0 0 27 27" fill="none" xmlns="http://www.w3.org/2000/svg">
<path d="M9.52932 0H15.8822V6.75H9.52932V0ZM0 20.25H6.35288V27H0V20.25ZM0 10.125H6.35288V16.875H0V10.125ZM0 0H6.35288V6.75H0V0ZM15.8822 14.2087V10.125H9.52932V16.875H13.3728L15.8822 14.2087ZM26.8091 12.3019L24.9509 10.3275C24.8905 10.2632 24.8187 10.2122 24.7396 10.1774C24.6606 10.1426 24.5759 10.1247 24.4903 10.1247C24.4048 10.1247 24.3201 10.1426 24.2411 10.1774C24.162 10.2122 24.0902 10.2632 24.0298 10.3275L22.6321 11.8125L25.4115 14.7656L26.8091 13.2806C26.8696 13.2164 26.9176 13.1401 26.9504 13.0561C26.9831 12.9721 27 12.8821 27 12.7913C27 12.7004 26.9831 12.6104 26.9504 12.5264C26.9176 12.4424 26.8696 12.3661 26.8091 12.3019ZM11.1175 24.0469V27H13.8969L24.4903 15.7444L21.711 12.7913L11.1175 24.0469ZM19.0586 0H25.4115V6.75H19.0586V0Z" fill="white"/>
</svg>
