<svg width="726" height="266" viewBox="0 0 726 266" fill="none" xmlns="http://www.w3.org/2000/svg">
<path d="M152.781 244.285C121.913 244.89 70.9268 240.211 53.4443 252.11C27.951 269.462 165.141 260.693 252.134 260.817C343.711 260.941 368.6 256.541 512.34 264.07C656.079 271.6 696.788 255.022 649.11 249.832C603.128 244.812 615.992 246.176 476.602 253.566C340.722 260.77 166.182 244.022 152.797 244.285H152.781Z" fill="#BFBEBE"/>
<path d="M573.788 168.958C576.408 176.348 572.025 184.296 564.014 186.697C556.004 189.099 547.388 185.071 544.785 177.68C542.165 170.29 546.549 162.342 554.559 159.941C562.57 157.524 571.185 161.568 573.788 168.958Z" fill="#696C6D" stroke="#424243" stroke-width="0.98" stroke-miterlimit="10"/>
<path d="M569.254 170.321C571.051 175.403 568.045 180.872 562.536 182.53C557.028 184.188 551.1 181.414 549.303 176.332C547.506 171.251 550.512 165.782 556.02 164.124C561.529 162.466 567.457 165.239 569.254 170.321Z" fill="#424243"/>
<path d="M531.166 93.7694C482.077 108.534 455.156 157.4 471.161 202.686C487.166 247.973 540.134 272.808 589.223 258.043C638.311 243.278 665.232 194.413 649.227 149.127C633.223 103.84 580.255 79.0045 531.166 93.7694ZM636.346 153C650.034 191.733 627.009 233.533 585.024 246.16C543.039 258.787 497.729 237.546 484.042 198.813C470.355 160.08 493.379 118.28 535.364 105.653C577.349 93.0258 622.643 114.267 636.346 153Z" fill="#3D3D3D"/>
<path d="M560.185 166.246C543.408 144.897 461.487 38.6138 460.849 37.9631C460.849 37.9631 455.122 40.9223 455.441 43.9589C455.727 46.6702 471.967 65.1691 471.228 65.8198C470.17 66.7494 468.49 68.0818 465.837 70.1423C459.153 75.3171 414.867 101.144 373.789 124.818L381.212 122.587L375.754 132.053C375.754 132.053 391.137 123.764 395.168 118.388L396.662 122.618C430.889 103.871 464.107 85.0933 475.913 76.5565C476.249 76.3241 476.551 76.1692 476.854 76.0762L424.943 191.531L431.057 186.914L431.308 195.42L436.733 190.695L484.814 83.7608L552.544 171.297C553.988 173.156 556.726 173.668 558.842 172.459C561.159 171.142 561.798 168.291 560.185 166.262V166.246Z" fill="#F45725" stroke="#0D1A22" stroke-width="1.16" stroke-linecap="round" stroke-linejoin="round"/>
<path d="M348.884 189.61L344.114 194.909L355.685 194.49L348.884 189.61Z" fill="#F45725" stroke="#0D1A22" stroke-width="1.16" stroke-linecap="round" stroke-linejoin="round"/>
<path d="M344.215 110.518L364.821 100.834L369.271 110.626L344.215 110.518Z" fill="#F45725" stroke="#0D1A22" stroke-width="1.16" stroke-linecap="round" stroke-linejoin="round"/>
<path d="M399.266 193.391L383.832 210.944L400.223 216.475L399.266 193.391Z" fill="#F45725" stroke="#0D1A22" stroke-width="1.16" stroke-linecap="round" stroke-linejoin="round"/>
<path d="M461.017 35.5151C461.017 35.5151 466.441 35.6546 467.163 34.0123C468.171 31.7348 465.047 28.6517 456.247 31.5334C447.447 34.4151 444.021 36.8785 442.863 38.149C441.536 39.6208 440.36 43.9434 444.878 43.4476C449.412 42.9519 447.481 37.018 461 35.5306L461.017 35.5151Z" fill="#533512"/>
<path d="M431.443 53.9675C431.443 53.9675 426.019 54.107 425.397 55.7802C424.524 58.1042 427.832 61.0169 436.431 57.7014C445.046 54.3858 447.935 51.3802 449.396 50.4196C450.857 49.4435 453.51 43.9899 449.01 44.7181C444.526 45.4463 444.845 51.783 431.426 53.952L431.443 53.9675Z" fill="#533512"/>
<path d="M449.715 50.1563L466.996 34.2913C466.996 34.2913 464.493 32.587 461.957 33.5321C459.405 34.4772 455.072 39.5744 452.049 42.1153C441.418 51.0239 446.339 50.2337 449.731 50.1718L449.715 50.1563Z" fill="#533512"/>
<path d="M340.806 191.423L332.946 192.244L293.615 217.281C291.213 218.799 290.608 221.836 292.271 224.051C293.01 225.043 294.085 225.709 295.26 225.988C296.705 226.344 298.283 226.127 299.61 225.291L343.358 197.45L336.019 198.689L340.822 191.423H340.806Z" fill="#F45725" stroke="#0D1A22" stroke-width="1.16" stroke-linecap="round" stroke-linejoin="round"/>
<path d="M173.705 88.6721C123.794 76.4945 72.4378 104.041 59.2209 150.087C46.0209 196.133 75.8806 243.511 125.792 255.704C175.704 267.881 227.06 240.335 240.277 194.289C253.477 148.243 223.617 100.865 173.705 88.6721ZM227.228 191.097C215.925 230.512 171.976 254.077 129.269 243.65C86.5447 233.223 61.0011 192.678 72.2867 153.279C83.589 113.864 127.539 90.2989 170.246 100.71C212.97 111.137 238.513 151.683 227.211 191.082L227.228 191.097Z" fill="#3D3D3D"/>
<path d="M265.652 97.5652C265.652 97.7511 272.756 215.313 274.704 218.195C276.636 221.092 282.228 220.922 283.605 216.15C284.949 211.471 276.804 104.769 276.552 100.369C273.025 99.7807 269.229 98.7737 265.652 97.5652Z" fill="#F45725" stroke="#0D1A22" stroke-width="1.16" stroke-linecap="round" stroke-linejoin="round"/>
<path d="M256.768 82.3665C254.602 82.0257 252.301 82.5989 250.857 84.1327C249.496 85.5581 248.892 87.7271 251.814 90.6398C253.947 92.7624 259.455 95.4582 265.669 97.5653C269.246 98.7738 273.041 99.7808 276.568 100.37C283.756 101.563 289.768 101.005 290.289 96.7751C291.28 88.4088 265.081 83.6679 256.785 82.3665H256.768Z" fill="#533512" stroke="#0D1A22" stroke-width="1.16" stroke-linecap="round" stroke-linejoin="round"/>
<path d="M96.1504 94.2341L96.7214 92.22C97.5107 89.4777 95.7306 86.6579 92.7413 85.9298L90.239 85.3256L80.6328 106.009L96.1336 94.2186L96.1504 94.2341Z" fill="#F45725" stroke="#0D1A22" stroke-width="1.16" stroke-linecap="round" stroke-linejoin="round"/>
<path d="M86.8299 84.7987L90.6085 84.4579L80.6497 106.009L77.8115 102.058L86.8299 84.7987Z" fill="url(#paint0_linear_94_15406)"/>
<path d="M239.689 198.147C253.124 151.264 223.315 103.329 173.084 91.0735C122.853 78.8184 71.2455 106.876 57.7935 153.759C57.7935 153.759 56.3492 138.978 57.7095 135.725C76.0318 92.1425 126.397 68.8872 175.956 80.9874C225.784 93.1495 257.155 136.732 249.278 183.211C248.724 186.434 239.655 198.131 239.655 198.131L239.689 198.147Z" fill="#F45725" stroke="#0D1A22" stroke-width="1.16" stroke-linecap="round" stroke-linejoin="round"/>
<path d="M326.631 117.66L336.791 112.439L329.251 110.595C285.15 109.96 270.539 108.178 270.539 108.178L154.258 167.346C153.048 167.966 152.058 168.88 151.386 169.996L150.949 176.751L273.394 114.515C285.771 115.134 303.909 118.574 349.773 120.185L350.999 115.894C344.433 118.388 326.648 117.644 326.648 117.644L326.631 117.66Z" fill="#F45725" stroke="#0D1A22" stroke-width="1.16" stroke-linecap="round" stroke-linejoin="round"/>
<path d="M150.429 175.93L291.767 225.632L292.993 222.626L151.638 172.924L150.429 175.93Z" fill="#F45725" stroke="#0D1A22" stroke-width="1.16" stroke-linecap="round" stroke-linejoin="round"/>
<path d="M160.069 175.728C158.272 182.018 151.286 185.768 144.468 184.095C137.649 182.437 133.585 175.992 135.399 169.701C137.196 163.411 144.182 159.662 151 161.335C157.819 162.993 161.883 169.438 160.069 175.728Z" fill="#424243"/>
<path d="M284.495 188.634L290.121 191.113L283.605 216.15L281.439 217.219C280.969 217.405 280.498 217.622 280.062 217.932C277.106 219.915 276.451 223.741 278.601 226.468C280.767 229.195 284.898 229.799 287.871 227.816C290.827 225.833 291.482 222.006 289.332 219.279C289.097 218.985 288.845 218.722 288.576 218.489L287.451 216.584L293.682 192.678L296.94 194.119C299.476 195.234 302.498 194.212 303.657 191.857C304.766 189.61 303.758 186.961 301.373 185.83L289.097 180.066C286.595 178.889 283.521 179.849 282.312 182.189L282.161 182.468C280.969 184.761 282.027 187.518 284.512 188.619L284.495 188.634Z" fill="#424243"/>
<path d="M143.225 179.958L272.219 242.349L273.294 240.443L144.316 178.052L143.225 179.958Z" fill="#353535"/>
<path d="M148.615 166.99L290.81 200.858L291.347 198.751L149.153 164.899L148.615 166.99Z" fill="#353535"/>
<path d="M139.278 170.569C137.783 174.83 140.319 179.416 144.954 180.795C149.572 182.174 154.543 179.819 156.021 175.558C157.516 171.297 154.98 166.727 150.345 165.348C145.71 163.969 140.755 166.309 139.261 170.569H139.278Z" fill="#727273"/>
<path d="M295.579 228.235L314.17 230.388L297.258 222.828C295.68 222.115 295.445 220.116 296.839 219.125L311.634 208.527L293.9 214.213C292.237 214.74 290.541 213.485 290.759 211.874L293.093 194.723L284.898 210.325C284.126 211.781 281.959 211.998 280.884 210.712L269.38 197.062L275.544 213.439C276.132 214.972 274.754 216.537 273.008 216.336L254.417 214.182L271.329 221.743C272.907 222.456 273.142 224.454 271.748 225.446L256.953 236.043L274.704 230.357C276.367 229.83 278.046 231.085 277.845 232.697L275.51 249.848L283.706 234.246C284.461 232.79 286.628 232.573 287.719 233.859L299.223 247.508L293.06 231.147C292.489 229.614 293.866 228.049 295.596 228.266L295.579 228.235Z" fill="#424243"/>
<path d="M274.822 249.336C258.65 244.518 249.749 228.467 254.955 213.547C260.178 198.627 277.576 190.416 293.749 195.219C309.922 200.037 318.839 216.088 313.616 231.008C308.393 245.928 290.995 254.139 274.822 249.321V249.336ZM290.524 204.468C279.877 201.292 268.407 206.715 264.981 216.537C261.538 226.36 267.416 236.942 278.063 240.102C288.711 243.278 300.181 237.856 303.607 228.033C307.05 218.21 301.172 207.629 290.524 204.468Z" fill="#575757"/>
<path d="M297.829 226.313C295.411 233.208 287.4 236.988 279.927 234.773C272.454 232.542 268.339 225.151 270.757 218.257C273.176 211.363 281.187 207.582 288.66 209.813C296.133 212.044 300.248 219.434 297.829 226.329V226.313Z" fill="#EAEAE9"/>
<path d="M305.605 250.545L299.475 251.598L288.761 227.832L289.819 225.787C290.91 224.175 291.397 221.96 289.281 219.372C286.074 215.453 279.138 216.289 277.777 221.03C277.71 221.278 277.643 221.542 277.609 221.805C277.156 224.811 279.339 227.754 282.53 228.498C282.782 228.56 283.017 228.606 283.269 228.622L285.385 229.536L295.612 252.249L292.052 252.853C289.298 253.318 287.501 255.797 288.055 258.322C288.593 260.739 291.112 262.335 293.748 261.948L307.352 259.934C310.123 259.531 311.987 257.083 311.483 254.542L311.416 254.232C310.912 251.722 308.292 250.064 305.571 250.529L305.605 250.545Z" fill="#424243"/>
<path d="M86.7296 12.291C86.8639 15.4052 84.2273 18.0235 80.8685 18.132C77.4929 18.2559 74.6547 15.8235 74.5371 12.7248C74.4028 9.61071 77.0395 6.99238 80.3982 6.88393C83.7738 6.75998 86.612 9.19239 86.7296 12.291Z" fill="#EEC31B"/>
<path d="M268.81 5.78371C268.944 8.80488 266.391 11.3458 263.116 11.4542C259.842 11.5782 257.087 9.2232 256.97 6.20203C256.836 3.18087 259.388 0.639984 262.663 0.531532C265.938 0.407587 268.692 2.76255 268.81 5.78371Z" fill="#F45725"/>
<path d="M678.045 101.113C678.179 104.134 675.627 106.675 672.352 106.784C669.077 106.908 666.323 104.553 666.205 101.532C666.071 98.5105 668.624 95.9696 671.898 95.8611C675.173 95.7372 677.927 98.0922 678.045 101.113Z" fill="#E1413E"/>
<path d="M16.4303 140.079C16.5982 144.262 13.0715 147.794 8.5371 147.949C4.00272 148.104 0.173697 144.85 0.00575715 140.667C-0.162183 136.484 3.36456 132.952 7.89893 132.797C12.4333 132.642 16.2623 135.895 16.4303 140.079Z" fill="#E1413E"/>
<path d="M513.549 10.5247C513.632 12.5388 511.936 14.2276 509.753 14.305C507.57 14.3825 505.739 12.8177 505.655 10.8036C505.571 8.78949 507.268 7.10073 509.451 7.02326C511.634 6.9458 513.465 8.5106 513.549 10.5247Z" fill="#E1413E"/>
<path d="M569.909 66.238C567.054 66.3465 564.384 64.6887 563.494 62.0549C562.436 58.9098 564.334 55.5632 567.743 54.5872L594.731 46.8096C598.14 45.8335 601.768 47.5843 602.826 50.7294C603.884 53.8745 601.986 57.221 598.577 58.1971L571.589 65.9746C571.035 66.1296 570.464 66.2225 569.909 66.238Z" fill="#F45725"/>
<path d="M7.59655 255.239C4.85913 255.332 2.23926 253.798 1.26521 251.288C0.0560459 248.19 1.80263 244.766 5.16143 243.666L32.0989 234.742C35.4577 233.626 39.1524 235.237 40.3616 238.336C41.5708 241.435 39.8242 244.859 36.4654 245.959L9.52786 254.883C8.88968 255.1 8.23472 255.208 7.59655 255.224V255.239Z" fill="#A3C53A"/>
<path d="M719.795 219.187C719.392 219.187 718.972 219.187 718.552 219.125L693.966 215.623C690.439 215.127 688.021 212.075 688.558 208.822C689.096 205.568 692.387 203.337 695.931 203.833L720.517 207.334C724.044 207.83 726.462 210.882 725.925 214.136C725.438 217.002 722.818 219.078 719.795 219.187Z" fill="#EEC31B"/>
<path d="M408.838 228.482C409.241 228.111 409.762 227.832 410.333 227.661C412.264 227.119 414.313 228.126 414.884 229.908L417.823 238.894C418.411 240.676 417.319 242.566 415.388 243.092C413.457 243.635 411.408 242.628 410.837 240.846L407.898 231.86C407.495 230.621 407.898 229.319 408.838 228.482Z" fill="#EEC31B"/>
<path d="M394.009 227.878C394.799 227.166 395.924 226.794 397.099 226.949C399.098 227.212 400.475 228.932 400.189 230.776L397.15 250.08C396.864 251.924 395 253.194 393.002 252.931C391.003 252.667 389.626 250.948 389.911 249.104L392.951 229.799C393.069 229.04 393.455 228.374 394.009 227.878Z" fill="#EEC31B"/>
<path d="M381.75 223.091C383.026 221.929 385.075 221.79 386.536 222.828C388.131 223.959 388.434 226.081 387.191 227.553L379.399 236.864C378.173 238.352 375.872 238.615 374.276 237.469C372.681 236.338 372.379 234.215 373.621 232.743L381.414 223.432C381.515 223.308 381.632 223.184 381.75 223.075V223.091Z" fill="#EEC31B"/>
<path d="M371.505 82.4751C372.009 82.9863 372.664 83.4046 373.437 83.6525C375.956 84.4891 378.727 83.2962 379.634 80.9722L384.218 69.2749C385.125 66.9509 383.832 64.3945 381.313 63.5579C378.794 62.7213 376.023 63.9142 375.116 66.2382L370.531 77.9355C369.893 79.5468 370.33 81.2821 371.522 82.4751H371.505Z" fill="#EEC31B"/>
<path d="M351.823 82.3201C352.814 83.3116 354.275 83.8848 355.837 83.7609C358.507 83.544 360.472 81.3595 360.22 78.9115L357.684 53.1774C357.449 50.7295 355.081 48.9013 352.427 49.1337C349.757 49.3506 347.792 51.5351 348.044 53.9831L350.58 79.7172C350.681 80.7243 351.134 81.6229 351.823 82.3201Z" fill="#EEC31B"/>
<path d="M335.247 87.8357C336.859 89.4625 339.546 89.7723 341.562 88.5019C343.762 87.1075 344.316 84.3187 342.804 82.2891L333.215 69.4608C331.704 67.4157 328.681 66.9199 326.481 68.3143C324.281 69.7087 323.727 72.4975 325.238 74.5271L334.827 87.3554C334.962 87.5258 335.096 87.6962 335.247 87.8357Z" fill="#EEC31B"/>
<defs>
<linearGradient id="paint0_linear_94_15406" x1="80.2089" y1="93.895" x2="87.3519" y2="95.9435" gradientUnits="userSpaceOnUse">
<stop stop-color="#3A130E"/>
<stop offset="1" stop-color="#29140B"/>
</linearGradient>
</defs>
</svg>
