<svg width="18" height="18" viewBox="0 0 18 18" fill="none" xmlns="http://www.w3.org/2000/svg">
<g clip-path="url(#clip0_264_8253)">
<path fill-rule="evenodd" clip-rule="evenodd" d="M16.8658 9.43646C16.8658 8.83744 16.812 8.26145 16.7122 7.7085H8.75586V10.9763H13.3023C13.1065 12.0323 12.5113 12.927 11.6166 13.526V15.6456H14.3468C15.9442 14.1749 16.8658 12.0092 16.8658 9.43646Z" fill="#4285F4"/>
<path fill-rule="evenodd" clip-rule="evenodd" d="M8.75634 17.6924C11.0373 17.6924 12.9495 16.9359 14.3473 15.6457L11.6171 13.526C10.8606 14.0329 9.89296 14.3324 8.75634 14.3324C6.55606 14.3324 4.69369 12.8464 4.02938 10.8496H1.20703V13.0384C2.59709 15.7993 5.454 17.6924 8.75634 17.6924Z" fill="#34A853"/>
<path fill-rule="evenodd" clip-rule="evenodd" d="M4.02949 10.8496C3.86053 10.3428 3.76453 9.80133 3.76453 9.24454C3.76453 8.68775 3.86053 8.14632 4.02949 7.63944V5.45068H1.20714C0.634988 6.59114 0.308594 7.88136 0.308594 9.24454C0.308594 10.6077 0.634988 11.8979 1.20714 13.0384L4.02949 10.8496Z" fill="#FBBC05"/>
<path fill-rule="evenodd" clip-rule="evenodd" d="M8.75634 4.15682C9.99663 4.15682 11.1102 4.58305 11.9857 5.42015L14.4087 2.99716C12.9457 1.63398 11.0334 0.796875 8.75634 0.796875C5.454 0.796875 2.59709 2.68996 1.20703 5.45087L4.02938 7.63963C4.69369 5.64287 6.55606 4.15682 8.75634 4.15682Z" fill="#EA4335"/>
</g>
<defs>
<clipPath id="clip0_264_8253">
<rect width="16.8957" height="16.8957" fill="white" transform="translate(0.308594 0.796875)"/>
</clipPath>
</defs>
</svg>
