<svg xmlns="http://www.w3.org/2000/svg" width="92" height="36" viewBox="0 0 92 36" fill="none">
<g filter="url(#filter0_d_253_16)">
<path d="M1.56 34.5C1.208 34.5 0.92 34.388 0.696 34.164C0.472 33.94 0.36 33.652 0.36 33.3V2.1C0.36 1.748 0.472 1.46 0.696 1.236C0.92 1.012 1.208 0.899998 1.56 0.899998H23.592C23.944 0.899998 24.232 1.012 24.456 1.236C24.712 1.46 24.84 1.748 24.84 2.1V6.948C24.84 7.3 24.712 7.588 24.456 7.812C24.232 8.036 23.944 8.148 23.592 8.148H8.808V15.204H22.632C22.984 15.204 23.272 15.332 23.496 15.588C23.752 15.812 23.88 16.1 23.88 16.452V21.252C23.88 21.572 23.752 21.86 23.496 22.116C23.272 22.34 22.984 22.452 22.632 22.452H8.808V33.3C8.808 33.652 8.696 33.94 8.472 34.164C8.248 34.388 7.96 34.5 7.608 34.5H1.56ZM31.185 34.5C30.833 34.5 30.545 34.388 30.321 34.164C30.097 33.94 29.985 33.652 29.985 33.3V2.1C29.985 1.748 30.097 1.46 30.321 1.236C30.545 1.012 30.833 0.899998 31.185 0.899998H53.601C53.953 0.899998 54.241 1.012 54.465 1.236C54.689 1.46 54.801 1.748 54.801 2.1V6.612C54.801 6.964 54.689 7.252 54.465 7.476C54.241 7.7 53.953 7.812 53.601 7.812H38.289V14.292H52.545C52.897 14.292 53.185 14.42 53.409 14.676C53.633 14.9 53.745 15.188 53.745 15.54V19.716C53.745 20.036 53.633 20.324 53.409 20.58C53.185 20.804 52.897 20.916 52.545 20.916H38.289V27.588H53.985C54.337 27.588 54.625 27.7 54.849 27.924C55.073 28.148 55.185 28.436 55.185 28.788V33.3C55.185 33.652 55.073 33.94 54.849 34.164C54.625 34.388 54.337 34.5 53.985 34.5H31.185ZM61.8413 34.5C61.4893 34.5 61.2013 34.388 60.9773 34.164C60.7533 33.94 60.6413 33.652 60.6413 33.3V2.1C60.6413 1.748 60.7533 1.46 60.9773 1.236C61.2013 1.012 61.4893 0.899998 61.8413 0.899998H74.3213C77.4573 0.899998 80.1293 1.412 82.3373 2.436C84.5453 3.428 86.2413 4.9 87.4253 6.852C88.6093 8.772 89.2493 11.156 89.3453 14.004C89.3773 15.412 89.3933 16.644 89.3933 17.7C89.3933 18.756 89.3773 19.972 89.3453 21.348C89.2173 24.324 88.5773 26.788 87.4253 28.74C86.3053 30.692 84.6573 32.148 82.4813 33.108C80.3373 34.036 77.6973 34.5 74.5613 34.5H61.8413ZM69.2333 27.588H74.3213C75.6973 27.588 76.8333 27.38 77.7293 26.964C78.6573 26.516 79.3453 25.828 79.7933 24.9C80.2733 23.972 80.5293 22.756 80.5613 21.252C80.6253 20.324 80.6573 19.492 80.6573 18.756C80.6893 18.02 80.6893 17.284 80.6573 16.548C80.6573 15.812 80.6253 14.996 80.5613 14.1C80.4973 11.924 79.9213 10.34 78.8333 9.348C77.7773 8.324 76.1933 7.812 74.0813 7.812H69.2333V27.588Z" fill="white"/>
</g>
<defs>
<filter id="filter0_d_253_16" x="0.360352" y="0.396856" width="91.0332" height="35.6" filterUnits="userSpaceOnUse" color-interpolation-filters="sRGB">
<feFlood flood-opacity="0" result="BackgroundImageFix"/>
<feColorMatrix in="SourceAlpha" type="matrix" values="0 0 0 0 0 0 0 0 0 0 0 0 0 0 0 0 0 0 127 0" result="hardAlpha"/>
<feOffset dx="1" dy="0.496831"/>
<feGaussianBlur stdDeviation="0.5"/>
<feComposite in2="hardAlpha" operator="out"/>
<feColorMatrix type="matrix" values="0 0 0 0 0.956863 0 0 0 0 0.341176 0 0 0 0 0.145098 0 0 0 1 0"/>
<feBlend mode="normal" in2="BackgroundImageFix" result="effect1_dropShadow_253_16"/>
<feBlend mode="normal" in="SourceGraphic" in2="effect1_dropShadow_253_16" result="shape"/>
</filter>
</defs>
</svg>